<?xml version="1.0" standalone="no"?>
<!DOCTYPE svg PUBLIC "-//W3C//DTD SVG 20010904//EN"
 "http://www.w3.org/TR/2001/REC-SVG-20010904/DTD/svg10.dtd">
<svg version="1.0" xmlns="http://www.w3.org/2000/svg"
 viewBox="0 0 338.000000 263.000000"
 preserveAspectRatio="xMidYMid meet">

<g transform="translate(0.000000,263.000000) scale(0.100000,-0.100000)"
fill="#000000" stroke="none">
<path d="M270 2525 c0 -3 12 -34 27 -68 23 -53 27 -75 26 -152 -1 -114 -27
-182 -106 -270 l-56 -62 44 -32 c61 -44 130 -127 161 -196 54 -116 28 -240
-63 -305 -44 -32 -44 -32 -24 -51 11 -11 27 -19 34 -19 8 0 20 -7 27 -15 7 -8
18 -15 24 -15 22 0 85 -70 110 -122 45 -95 36 -189 -25 -241 l-38 -33 72 -18
c97 -25 154 -55 211 -112 64 -63 90 -122 83 -186 l-6 -50 42 9 c75 14 143 7
191 -21 82 -48 145 -143 146 -220 l0 -38 32 24 c71 53 145 64 199 30 79 -51
103 -86 129 -192 16 -63 17 -64 30 -40 22 39 17 236 -8 330 -19 70 -55 159
-84 205 -7 11 -26 43 -42 70 -43 70 -64 88 -101 81 -16 -3 -48 -10 -70 -14
-50 -10 -162 8 -231 36 -82 33 -187 112 -172 128 3 3 30 18 60 33 65 34 73 56
24 65 -20 4 -36 12 -36 18 0 6 -8 20 -17 30 -16 18 -16 21 -1 49 26 45 1 53
-81 23 -61 -22 -66 -23 -75 -6 -6 9 -11 24 -12 32 -24 174 -24 180 -10 248 22
105 69 199 139 274 20 23 37 47 37 53 0 21 -77 164 -165 310 -23 38 -70 99
-102 132 -12 13 -26 29 -30 37 -4 8 -30 40 -58 72 -64 73 -235 211 -235 189z
m530 -1395 c0 -5 -7 -10 -16 -10 -8 0 -12 5 -9 10 3 6 10 10 16 10 5 0 9 -4 9
-10z m44 -81 c-3 -5 -10 -7 -15 -3 -5 3 -7 10 -3 15 3 5 10 7 15 3 5 -3 7 -10
3 -15z"/>
<path d="M2381 1615 c-35 -8 -81 -23 -102 -33 l-37 -19 -11 23 c-13 29 -61 39
-153 29 -89 -8 -187 -38 -216 -65 -27 -26 -29 -66 -3 -80 11 -5 40 -10 65 -10
l45 0 3 -205 c3 -194 4 -206 25 -226 27 -28 70 -19 83 17 6 14 10 85 10 157 0
73 3 161 6 197 l6 65 62 30 62 30 -13 -50 c-15 -53 -20 -305 -7 -370 8 -46 54
-80 109 -80 52 0 187 64 211 100 21 32 7 71 -29 80 -20 5 -99 -11 -154 -32 -9
-4 -13 7 -13 34 l0 40 70 27 c78 31 106 60 96 101 -9 34 -47 42 -109 22 -28
-9 -52 -15 -54 -13 -2 1 -1 16 3 32 5 25 16 33 74 57 90 37 120 61 120 97 0
59 -34 69 -149 45z"/>
<path d="M2687 1597 c-116 -40 -111 -28 -112 -301 0 -223 1 -236 21 -263 46
-62 87 -32 105 78 9 60 27 89 53 89 6 0 23 -33 39 -74 33 -88 60 -126 92 -126
37 0 48 23 43 90 -3 40 -14 78 -34 118 l-31 58 38 43 c43 48 54 87 47 162 -12
125 -118 176 -261 126z m111 -139 c31 -31 -11 -106 -68 -121 -18 -5 -20 0 -20
53 0 46 4 61 18 69 23 14 55 14 70 -1z"/>
<path d="M1273 1590 c-61 -37 -106 -131 -138 -288 -33 -155 -18 -272 34 -272
28 0 70 55 77 101 8 47 17 55 75 62 l46 6 6 -57 c6 -71 24 -111 53 -118 33 -8
61 11 75 53 24 72 -15 352 -62 450 -37 76 -103 102 -166 63z m75 -161 c7 -13
11 -44 10 -69 l-3 -45 -43 -3 -44 -3 7 43 c10 61 32 111 47 106 7 -3 19 -15
26 -29z"/>
<path d="M1617 1593 c-38 -44 -64 -272 -47 -425 14 -122 22 -146 55 -154 59
-15 223 29 275 73 36 30 41 76 11 93 -27 14 -86 12 -151 -5 -30 -8 -56 -15
-56 -15 -1 0 -1 89 0 198 1 174 -1 201 -17 225 -20 31 -47 35 -70 10z"/>
<path d="M2876 729 c-29 -23 -56 -68 -56 -94 0 -9 11 -33 25 -53 32 -48 32
-67 -6 -109 -32 -37 -33 -50 -6 -67 12 -8 23 -5 44 10 71 54 86 118 40 173
-34 41 -34 53 1 83 39 32 46 46 32 63 -17 21 -43 19 -74 -6z"/>
<path d="M1658 724 c-64 -34 -97 -173 -61 -256 32 -71 104 -88 153 -36 34 37
22 54 -34 50 -33 -2 -52 1 -57 10 -13 19 -11 103 3 133 15 33 42 29 46 -8 4
-33 26 -45 48 -26 24 20 14 107 -16 131 -27 22 -46 22 -82 2z"/>
<path d="M2278 726 c-51 -14 -78 -31 -78 -51 0 -14 22 -25 51 -25 17 0 19 -8
19 -103 0 -108 12 -146 42 -134 12 4 16 31 20 122 3 64 9 120 14 125 5 4 19
11 32 15 l23 7 -3 -126 c-2 -91 1 -129 10 -138 20 -20 46 3 56 50 5 26 15 42
27 45 16 4 19 -1 19 -35 0 -70 36 -103 61 -57 17 32 25 260 10 287 -13 24 -35
29 -48 10 -4 -7 -10 -40 -13 -73 -4 -53 -8 -60 -27 -63 -22 -3 -23 0 -23 67 0
45 -4 73 -12 78 -21 13 -130 12 -180 -1z"/>
<path d="M2717 729 c-63 -15 -75 -25 -86 -79 -22 -104 -9 -207 30 -229 23 -13
30 -12 83 12 48 22 57 30 54 49 -3 25 -17 27 -75 14 -29 -7 -33 -5 -33 13 0
15 13 28 45 43 29 14 45 28 45 40 0 25 -26 33 -57 19 -58 -27 -37 17 25 49 37
20 47 30 47 50 0 29 -19 33 -78 19z"/>
<path d="M1821 716 c-17 -21 -31 -164 -22 -229 11 -78 17 -83 87 -68 65 12
104 34 104 57 0 22 -27 28 -76 17 l-44 -10 0 98 c0 127 -17 174 -49 135z"/>
<path d="M2050 702 c-73 -74 -59 -258 23 -286 68 -24 119 31 125 133 5 82 -10
133 -45 161 -36 28 -69 25 -103 -8z m78 -127 c2 -65 -7 -91 -31 -82 -38 14
-28 152 11 145 13 -3 18 -15 20 -63z"/>
</g>
</svg>
